<svg xmlns="http://www.w3.org/2000/svg" version="1.1" xmlns:xlink="http://www.w3.org/1999/xlink" xmlns:svgjs="http://svgjs.dev/svgjs" width="1000" height="623" viewBox="0 0 1000 623"><g transform="matrix(1,0,0,1,-0.6060606060606233,0.2522267206477409)"><svg viewBox="0 0 396 247" data-background-color="#ffffff" preserveAspectRatio="xMidYMid meet" height="623" width="1000" xmlns="http://www.w3.org/2000/svg" xmlns:xlink="http://www.w3.org/1999/xlink"><g id="tight-bounds" transform="matrix(1,0,0,1,0.2400000000000091,-0.09999999999999432)"><svg viewBox="0 0 395.52 247.2" height="247.2" width="395.52"><g><svg></svg></g><g><svg viewBox="0 0 395.52 247.2" height="247.2" width="395.52"><g transform="matrix(1,0,0,1,75.54432,93.51168325093126)"><svg viewBox="0 0 244.43135999999998 60.176633498137484" height="60.176633498137484" width="244.43135999999998"><g><svg viewBox="0 0 244.43135999999998 60.176633498137484" height="60.176633498137484" width="244.43135999999998"><g><svg viewBox="0 0 244.43135999999998 60.176633498137484" height="60.176633498137484" width="244.43135999999998"><g><svg viewBox="0 0 244.43135999999998 60.176633498137484" height="60.176633498137484" width="244.43135999999998"><g id="textblocktransform"><svg viewBox="0 0 244.43135999999998 60.176633498137484" height="60.176633498137484" width="244.43135999999998" id="textblock"><g><svg viewBox="0 0 244.43135999999998 60.176633498137484" height="60.176633498137484" width="244.43135999999998"><g transform="matrix(1,0,0,1,0,0)"><svg width="244.43135999999998" viewBox="0.9 -35.5 147.64 36.35" height="60.176633498137484" data-palette-color="#7a26c1"><path d="M10.75-15L8.6 0 0.9 0 5.8-34.65 13.5-34.65 11.6-21.1 20.25-21.1 22.15-34.65 29.85-34.65 25 0 17.3 0 19.4-15 10.75-15ZM45.55-35.5Q52.1-35.5 56.05-31L56.05-31 52.05-26.95Q50.6-28.35 49.1-29.03 47.6-29.7 45.8-29.7L45.8-29.7Q43.55-29.7 42.22-28.55 40.9-27.4 40.9-25.6L40.9-25.6Q40.9-24.1 42-23.13 43.1-22.15 46.25-20.85L46.25-20.85Q50.1-19.3 51.97-17.13 53.85-14.95 53.85-11.3L53.85-11.3Q53.85-8 52.25-5.25 50.65-2.5 47.55-0.83 44.45 0.85 40.1 0.85L40.1 0.85Q32.95 0.85 28.65-4.15L28.65-4.15 33-8.35Q34.55-6.7 36.27-5.88 38-5.05 40.2-5.05L40.2-5.05Q42.8-5.05 44.35-6.4 45.9-7.75 45.9-10.1L45.9-10.1Q45.9-11.9 44.77-13 43.65-14.1 40.65-15.4L40.65-15.4Q36.55-17.1 34.77-19.18 33-21.25 33-24.55L33-24.55Q33-27.5 34.52-30 36.05-32.5 38.9-34 41.75-35.5 45.55-35.5L45.55-35.5ZM61.05-34.65L79.65-34.65 77.95-29 67.95-29 66.65-19.55 75.5-19.55 74.65-13.9 65.84-13.9 63.9 0 56.2 0 61.05-34.65ZM82.69-34.65L90.39-34.65 85.54 0 77.84 0 82.69-34.65ZM119.94-34.65L115.09 0 105.59 0 100.39-28.15Q100.44-27 100.44-24.7L100.44-24.7Q100.44-18.75 99.64-12.7L99.64-12.7 97.94 0 91.14 0 95.99-34.65 105.44-34.65 110.64-6.5Q110.59-8 110.59-10.7L110.59-10.7Q110.59-15.5 111.24-20.5L111.24-20.5 113.14-34.65 119.94-34.65ZM134.49-34.65Q140.89-34.65 144.71-31.88 148.54-29.1 148.54-22.05L148.54-22.05Q148.54-12.2 144.14-6.1 139.74 0 130.24 0L130.24 0 120.69 0 125.54-34.65 134.49-34.65ZM134.84-28.95L132.44-28.95 129.19-5.7 131.44-5.7Q136.39-5.7 138.54-10.68 140.69-15.65 140.69-22.15L140.69-22.15Q140.69-26 139.19-27.48 137.69-28.95 134.84-28.95L134.84-28.95Z" opacity="1" transform="matrix(1,0,0,1,0,0)" fill="#7a26c1" class="wordmark-text-0" data-fill-palette-color="primary" id="text-0"></path></svg></g></svg></g></svg></g></svg></g></svg></g></svg></g></svg></g><path d="M196.821 87.512L196.821 28.821 386.379 28.821 386.379 218.379 196.821 218.379 196.821 159.688 202.248 159.688 202.248 212.952 380.952 212.952 380.952 34.248 202.248 34.248 202.248 87.512Z" fill="#7a26c1" stroke="transparent" data-fill-palette-color="primary"></path></svg></g><defs></defs></svg><rect width="395.52" height="247.2" fill="none" stroke="none" visibility="hidden"></rect></g></svg></g></svg>